<svg width="1249" height="892" viewBox="0 0 1249 892" fill="none" xmlns="http://www.w3.org/2000/svg">
<path d="M267.912 357.067C317.151 357.067 357.067 317.151 357.067 267.912C357.067 218.673 317.151 178.757 267.912 178.757C218.673 178.757 178.757 218.673 178.757 267.912C178.757 317.151 218.673 357.067 267.912 357.067Z" fill="#E53855"/>
<path d="M268.356 320.696C297.262 320.696 320.696 297.262 320.696 268.356C320.696 239.449 297.262 216.016 268.356 216.016C239.449 216.016 216.016 239.449 216.016 268.356C216.016 297.262 239.449 320.696 268.356 320.696Z" fill="#060039"/>
<path d="M268.356 295.856C283.544 295.856 295.856 283.544 295.856 268.356C295.856 253.167 283.544 240.855 268.356 240.855C253.167 240.855 240.855 253.167 240.855 268.356C240.855 283.544 253.167 295.856 268.356 295.856Z" fill="#44AB96"/>
<path d="M1159.63 739.458L1096.38 802.751L1159.63 866.043L1222.87 802.751L1159.63 739.458Z" fill="#060039"/>
<path d="M1182.15 780.215H1137.11V825.286H1182.15V780.215Z" fill="#44AB96"/>
<path d="M267.685 520.885C309.061 520.885 342.602 487.359 342.602 446.003C342.602 404.647 309.061 371.122 267.685 371.122C226.31 371.122 192.768 404.647 192.768 446.003C192.768 487.359 226.31 520.885 267.685 520.885Z" fill="#F0F1F1"/>
<path d="M356.622 357.068C356.622 406.064 317 445.784 268.123 445.784C268.123 396.787 307.745 357.068 356.622 357.068Z" fill="#E53855"/>
<path d="M266.809 443.2V445.784H264.231C216.779 445.784 178.311 407.221 178.311 359.651V357.068H180.888C228.341 357.068 266.809 395.63 266.809 443.2Z" fill="#44AB96"/>
<path d="M264.231 446.662H266.809V449.246C266.809 496.816 228.341 535.378 180.888 535.378H178.311V532.794C178.311 485.225 216.779 446.662 264.231 446.662Z" fill="#E53855"/>
<path d="M356.622 532.794V535.378H354.044C306.591 535.378 268.123 496.816 268.123 449.246V446.662H270.701C318.154 446.662 356.622 485.225 356.622 532.794Z" fill="#44AB96"/>
<path d="M14.658 624.56C14.658 665.935 48.1994 699.477 89.5749 699.477C130.95 699.477 164.492 665.935 164.492 624.56C164.492 583.185 130.95 549.643 89.5749 549.643C48.1994 549.643 14.658 583.185 14.658 624.56Z" fill="#F0F1F1"/>
<path d="M-3.05176e-05 621.937C-3.05176e-05 574.132 38.7536 535.378 86.5586 535.378H89.1554V537.975C89.1554 585.78 50.4018 624.534 2.59673 624.534H-3.05176e-05V621.937Z" fill="#E53855"/>
<path d="M89.1554 711.092V713.689H86.5586C38.7536 713.689 -3.05176e-05 674.936 -3.05176e-05 627.131V624.534H2.59673C50.4018 624.534 89.1554 663.287 89.1554 711.092Z" fill="#44AB96"/>
<path d="M89.1554 627.131V624.534H91.7521C139.557 624.534 178.311 663.287 178.311 711.092V713.689H175.714C127.909 713.689 89.1554 674.936 89.1554 627.131Z" fill="#E53855"/>
<path d="M178.311 537.975C178.311 585.78 139.557 624.534 91.7521 624.534H89.1554V621.937C89.1554 574.132 127.909 535.378 175.714 535.378H178.311V537.975Z" fill="#44AB96"/>
<path d="M-6.10352e-05 535.378L-6.10352e-05 357.067H178.311C178.311 455.546 98.4783 535.378 -6.10352e-05 535.378Z" fill="#44AB96"/>
<path d="M-7.99224e-05 458.52L-7.99224e-05 357.067H101.203C101.203 413.098 55.893 458.52 -7.99224e-05 458.52Z" fill="#F0F1F1"/>
<path d="M-4.07866e-05 403.622L-4.07866e-05 357.067H46.4396C46.4396 382.779 25.6479 403.622 -4.07866e-05 403.622Z" fill="#060039"/>
<path d="M89.6012 0.44577C138.84 0.44577 178.757 40.362 178.757 89.6012C178.757 138.84 138.84 178.757 89.6012 178.757C40.362 178.757 0.44574 138.84 0.44574 89.6012C0.44574 40.362 40.362 0.44577 89.6012 0.44577Z" fill="#44AB96"/>
<path d="M90.0393 36.3708C119.68 36.3708 143.708 60.399 143.708 90.0393C143.708 119.68 119.68 143.708 90.0393 143.708C60.399 143.708 36.3708 119.68 36.3708 90.0393C36.3708 60.399 60.399 36.3708 90.0393 36.3708Z" fill="#F0F1F1"/>
<path d="M90.9155 62.2193C106.764 62.2193 119.612 75.067 119.612 90.9155C119.612 106.764 106.764 119.612 90.9155 119.612C75.067 119.612 62.2193 106.764 62.2193 90.9155C62.2193 75.067 75.067 62.2193 90.9155 62.2193Z" fill="#060039"/>
<path d="M178.757 70.5434L178.757 178.757L70.5434 178.757C70.5434 118.992 118.992 70.5434 178.757 70.5434Z" fill="#E53855"/>
<path d="M980.71 713.689C1029.95 713.689 1069.87 753.605 1069.87 802.845C1069.87 852.084 1029.95 892 980.71 892C931.47 892 891.554 852.084 891.554 802.845C891.554 753.605 931.47 713.689 980.71 713.689Z" fill="#44AB96"/>
<path d="M981.148 749.614C1010.79 749.614 1034.82 773.642 1034.82 803.283C1034.82 832.923 1010.79 856.951 981.148 856.951C951.507 856.951 927.479 832.923 927.479 803.283C927.479 773.642 951.507 749.614 981.148 749.614Z" fill="#F0F1F1"/>
<path d="M982.024 775.463C997.873 775.463 1010.72 788.31 1010.72 804.159C1010.72 820.007 997.873 832.855 982.024 832.855C966.176 832.855 953.328 820.007 953.328 804.159C953.328 788.31 966.176 775.463 982.024 775.463Z" fill="#060039"/>
<path d="M1069.87 783.787V892H961.652C961.652 832.236 1010.1 783.787 1069.87 783.787Z" fill="#E53855"/>
<path d="M447.091 579.408C447.091 555.212 466.706 535.597 490.902 535.597C515.099 535.597 534.713 555.212 534.713 579.408C534.713 603.605 515.099 623.219 490.902 623.219C466.706 623.219 447.091 603.605 447.091 579.408Z" fill="#E53855"/>
<path d="M356.841 579.408C356.841 555.212 376.456 535.597 400.652 535.597C424.848 535.597 444.463 555.212 444.463 579.408C444.463 603.605 424.848 623.219 400.652 623.219C376.456 623.219 356.841 603.605 356.841 579.408Z" fill="#FFB017"/>
<path d="M447.091 667.907C447.091 643.711 466.706 624.096 490.902 624.096C515.099 624.096 534.713 643.711 534.713 667.907C534.713 692.103 515.099 711.718 490.902 711.718C466.706 711.718 447.091 692.103 447.091 667.907Z" fill="#FFB017"/>
<path d="M356.622 713.689V669.002C356.622 644.322 376.727 624.315 401.528 624.315C426.329 624.315 446.434 644.322 446.434 669.002C446.434 693.682 426.329 713.689 401.528 713.689H356.622Z" fill="#44AB96"/>
<path d="M43.8109 801.311C19.6148 801.311 -9.29272e-05 781.696 -9.29272e-05 757.5C-9.29272e-05 733.304 19.6148 713.689 43.8109 713.689C68.0071 713.689 87.6219 733.304 87.6219 757.5C87.6219 781.696 68.0071 801.311 43.8109 801.311Z" fill="#E53855"/>
<path d="M43.8109 892C19.6148 892 -9.29272e-05 872.385 -9.29272e-05 848.189C-9.29272e-05 823.993 19.6148 804.378 43.8109 804.378C68.0071 804.378 87.6219 823.993 87.6219 848.189C87.6219 872.385 68.0071 892 43.8109 892Z" fill="#FFB017"/>
<path d="M132.747 801.311C108.551 801.311 88.9363 781.696 88.9363 757.5C88.9363 733.304 108.551 713.689 132.747 713.689C156.943 713.689 176.558 733.304 176.558 757.5C176.558 781.696 156.943 801.311 132.747 801.311Z" fill="#FFB017"/>
<path d="M178.311 892H133.404C108.603 892 88.4982 871.895 88.4982 847.094C88.4982 822.293 108.603 802.187 133.404 802.187C158.206 802.187 178.311 822.293 178.311 847.094V892Z" fill="#44AB96"/>
<path d="M89.7623 331.299L26.5166 268.007L89.7623 204.715L153.008 268.007L89.7623 331.299Z" fill="#FFB017"/>
<path d="M89.7623 299.876L57.9159 268.007L89.7623 236.137L121.609 268.007L89.7623 299.876Z" fill="#F0F1F1"/>
<path d="M446.829 509.609L383.583 446.317L446.829 383.025L510.075 446.317L446.829 509.609Z" fill="#060039"/>
<path d="M469.348 468.852H424.31V423.782H469.348V468.852Z" fill="#44AB96"/>
<path d="M445.777 713.689C495.016 713.689 534.933 753.605 534.933 802.845C534.933 852.084 495.016 892 445.777 892H356.622L356.622 802.845C356.622 753.605 396.538 713.689 445.777 713.689Z" fill="#F0F1F1"/>
<path d="M409.936 785.372C439.38 785.372 463.25 809.241 463.25 838.686C463.25 868.131 439.38 892 409.936 892H356.622L356.622 838.686C356.622 809.241 380.491 785.372 409.936 785.372Z" fill="#060039"/>
<path d="M445.777 747.515C475.84 747.515 500.211 771.886 500.211 801.949C500.211 832.012 475.84 856.383 445.777 856.383C415.714 856.383 391.343 832.012 391.343 801.949C391.343 771.886 415.714 747.515 445.777 747.515Z" fill="#44AB96"/>
<path d="M445.777 770.083C463.376 770.083 477.642 784.35 477.642 801.949C477.642 819.547 463.376 833.814 445.777 833.814C428.179 833.814 413.912 819.547 413.912 801.949C413.912 784.35 428.179 770.083 445.777 770.083Z" fill="#060039"/>
<path d="M267.466 535.378L356.622 535.378V624.534C356.622 673.773 316.705 713.689 267.466 713.689H178.311L178.311 624.534C178.311 575.295 218.227 535.378 267.466 535.378Z" fill="#44AB96"/>
<path d="M267.466 573.908C296.416 573.908 319.884 597.376 319.884 626.326C319.884 655.275 296.416 678.744 267.466 678.744H215.048L215.048 626.326C215.048 597.376 238.517 573.908 267.466 573.908Z" fill="#060039"/>
<path d="M321.407 535.378H357.07V571.04C357.07 600.584 333.12 624.534 303.576 624.534H267.914L267.914 588.872C267.914 559.328 291.864 535.378 321.407 535.378Z" fill="#F0F1F1"/>
<path d="M534.933 802.397V713.689H623.64C673.127 713.689 713.243 753.806 713.243 803.293V892H624.536C575.049 892 534.933 851.883 534.933 802.397Z" fill="#44AB96"/>
<path d="M573.462 802.845C573.462 773.895 596.93 750.427 625.88 750.427C654.83 750.427 678.298 773.895 678.298 802.845V855.263H625.88C596.93 855.263 573.462 831.794 573.462 802.845Z" fill="#060039"/>
<path d="M534.932 748.903V713.241H570.595C600.138 713.241 624.088 737.191 624.088 766.734V802.397H588.426C558.882 802.397 534.932 778.447 534.932 748.903Z" fill="#FFB017"/>
<path d="M312.49 892H222.443L267.466 846.977L312.49 892Z" fill="#44AB96"/>
<path d="M178.311 892L178.311 713.689H356.622L178.311 892Z" fill="#F0F1F1"/>
<path d="M356.622 892L178.311 713.689H356.622V892Z" fill="#E53855"/>
<path d="M757.821 713.689H847.868L802.845 758.713L757.821 713.689Z" fill="#FFB017"/>
<path d="M892 713.689V892H713.689L892 713.689Z" fill="#44AB96"/>
<path d="M713.689 713.689L892 892H713.689V713.689Z" fill="#F0F1F1"/>
</svg>
